<svg xmlns="http://www.w3.org/2000/svg" xmlns:xlink="http://www.w3.org/1999/xlink" width="238.453" height="34.188" viewBox="0 0 238.453 34.188"><defs><style>.a{fill:none;}.b{clip-path:url(#a);}.c{fill:#fff;}</style><clipPath id="a"><rect class="a" width="238.453" height="34.188"/></clipPath></defs><g transform="translate(119.227 17.094)"><g class="b" transform="translate(-119.227 -17.094)"><path class="c" d="M20.6,16.752V2.113L13.6,9.558,12.4,10.866Zm9.458-5.886L28.848,9.558,21.8,2.113V16.752ZM20.6,30.939V19.066h0v-.855L12.75,12.627l7.294,18.211v.1h0a1.509,1.509,0,0,0,.252.453h0l.2.2h.1Zm9.055-18.312L21.8,18.211v.855h0V31.643h.1l.2-.2h0a1.509,1.509,0,0,0,.252-.453h0v-.1Zm2.213-1.56h0l-.4.3L23.515,31.291v.1h0a2.465,2.465,0,0,1-.453.8h0l-.4.352-.453.252h0a2.415,2.415,0,0,1-1.861,0h0l-.453-.252-.4-.352h0a2.465,2.465,0,0,1-.453-.8h0v-.1L10.989,11.369l-.4-.3L1.38,4.528l-.151-.1L.777,4.075h0A2.364,2.364,0,0,1,2.387,0h37.68a2.364,2.364,0,0,1,1.61,4.075h0l-.453.352-.151.1ZM22.61,1.207l8.452,8.955,9.307-6.59.151-.1.352-.252h0a1.157,1.157,0,0,0-.755-2.012Zm-2.767,0H2.387A1.157,1.157,0,0,0,1.33,2.817a1.157,1.157,0,0,0,.252.4h0l.352.252.151.1,9.307,6.59Z" transform="translate(-0.022 0)"/><path class="c" d="M102.994,15.671H95.8V12.2h18.513v3.471h-7.244V34.033h-4.075Z" transform="translate(-47.606 -6.063)"/><rect class="c" width="4.075" height="21.828" transform="translate(69.725 6.137)"/><path class="c" d="M155.3,22.818c0-6.439,4.98-11.218,11.772-11.218s11.772,4.729,11.772,11.218-4.98,11.218-11.772,11.218S155.3,29.258,155.3,22.818m19.418,0a7.672,7.672,0,1,0-7.672,7.672,7.672,7.672,0,0,0,7.672-7.672" transform="translate(-77.174 -5.764)"/><path class="c" d="M225.992,23.233v9.508h-2.214V23.485c0-3.471-1.811-5.232-4.93-5.232a5.573,5.573,0,0,0-5.735,5.936v8.552H210.9V9.6h2.213v9.609a6.917,6.917,0,0,1,6.137-3.018c3.974,0,6.741,2.314,6.741,6.993" transform="translate(-104.803 -4.771)"/><path class="c" d="M249.7,31.1a8.326,8.326,0,0,1,16.651,0,8.326,8.326,0,1,1-16.651,0m14.438,0c0-3.823-2.566-6.389-6.087-6.389s-6.087,2.566-6.087,6.389,2.616,6.389,6.087,6.389,6.087-2.566,6.087-6.389" transform="translate(-124.085 -11.33)"/><rect class="c" width="2.213" height="23.136" transform="translate(146.845 4.829)"/><path class="c" d="M321.9,9.6V32.741h-2.113v-3.22a7.093,7.093,0,0,1-6.339,3.421,7.955,7.955,0,0,1-8.15-8.351,7.913,7.913,0,0,1,8.15-8.3,7.144,7.144,0,0,1,6.238,3.22V9.6Zm-2.163,14.941c0-3.823-2.616-6.389-6.087-6.389s-6.087,2.566-6.087,6.389,2.566,6.389,6.087,6.389,6.087-2.566,6.087-6.389" transform="translate(-151.714 -4.771)"/><path class="c" d="M349.6,11.159a1.61,1.61,0,0,1,1.61-1.56,1.56,1.56,0,0,1,1.61,1.509,1.61,1.61,0,0,1-3.22.05m.5,5.182h2.213v16.4H350.1Z" transform="translate(-173.728 -4.77)"/><path class="c" d="M382.292,29.743v9.508h-2.213V29.994c0-3.471-1.811-5.232-4.93-5.232a5.573,5.573,0,0,0-5.735,5.936v8.552H367.2v-16.4h2.113v3.018a6.923,6.923,0,0,1,6.238-3.169c3.974,0,6.741,2.314,6.741,6.993" transform="translate(-182.474 -11.28)"/><path class="c" d="M422.8,22.9V37.339c0,5.634-2.767,8.2-8.2,8.2-3.018,0-5.936-.906-7.647-2.515l1.107-1.66a9.759,9.759,0,0,0,6.439,2.264c4.125,0,6.037-1.912,6.037-5.936V35.528A7.313,7.313,0,0,1,414.15,38.7c-4.678,0-8.25-3.27-8.25-8s3.572-7.9,8.25-7.9a7.337,7.337,0,0,1,6.49,3.27V22.9Zm-2.163,7.8c0-3.572-2.616-5.986-6.238-5.986a5.812,5.812,0,0,0-6.188,5.986,6.215,6.215,0,0,0,12.426,0" transform="translate(-201.706 -11.33)"/><path class="c" d="M447.25,37.439l1.006-1.761a9.91,9.91,0,0,0,5.836,1.861c3.119,0,4.377-1.056,4.377-2.666,0-4.276-10.615-.906-10.615-7.4,0-2.666,2.314-4.679,6.49-4.679a11.328,11.328,0,0,1,5.785,1.509l-.956,1.761a8.4,8.4,0,0,0-4.829-1.409c-2.968,0-4.276,1.157-4.276,2.717,0,4.427,10.615,1.107,10.615,7.4,0,2.817-2.515,4.679-6.791,4.679a11.023,11.023,0,0,1-6.691-2.012" transform="translate(-222.229 -11.33)"/></g></g></svg>