<svg id="af1ee509-fa87-43ae-954c-29f2c552bfc2" data-name="Layer 1" xmlns="http://www.w3.org/2000/svg" viewBox="0 0 449.35 92.87"><title>tio-prime-logo</title><path d="M186.75,163.89l-.81.29a15,15,0,0,1-6,1.36c-2.92-.14-4.53-1.56-4.53-4.34,0-7,0-21.7,0-22.19h13v-7H175.33V120.26h-9.88c0,12.84,0,25.51,0,38.11a27.84,27.84,0,0,0,.38,6.42,12.69,12.69,0,0,0,1.7,4.39,11.48,11.48,0,0,0,3.93,3.52,13.14,13.14,0,0,0,5.67,1.49,21.46,21.46,0,0,0,8.46-1.3l3.94-1.46Z" transform="translate(-29.82 -104.76)" fill="#ff7a04"/><path d="M237.77,130.43c-12.79,0-22.47,9.75-22.47,21.78S225,174,237.77,174s22.48-9.75,22.48-21.77S250.57,130.43,237.77,130.43Zm0,35.9a14.13,14.13,0,1,1,14-14.12A14,14,0,0,1,237.77,166.33Z" transform="translate(-29.82 -104.76)" fill="#ff7a04"/><path d="M416.06,130.4c-7-.25-12.8,2-17.24,7.58-2.93-5.82-8.06-7.65-14.13-7.57s-10.8,2.79-14.54,8v-6.85h-3.94v42.27h4c0-.89,0-19.44,0-27.8a4.82,4.82,0,0,1,.31-2.12,17.19,17.19,0,0,1,9.11-8.74c6.5-2.58,16.48-.39,16.18,10.42v28.2h4V146.09a8.77,8.77,0,0,1,2.14-6,15.59,15.59,0,0,1,12.88-5.93c5.57,0,9.07,2.78,10.18,8.05a30.06,30.06,0,0,1,.51,5.77c0,7.75,0,25.07,0,25.77h4s.11-20.77-.1-30.58C429.33,135.57,424,130.68,416.06,130.4Z" transform="translate(-29.82 -104.76)" fill="#ff7a04"/><path d="M295.67,130.91c-8.16-1.64-15.7-.4-21.2,6.55a3.86,3.86,0,0,1-.75.69v-6.67h-3.89v58h4V168.39a5.21,5.21,0,0,1,.54.29c8.27,7.63,22,7.51,29.92-.48,6.29-6.4,7.69-14.2,5.84-22.6C308.47,137.9,303.76,132.54,295.67,130.91Zm5.62,34.55c-7.12,7.41-20.58,6.5-26.38-1.82a6.59,6.59,0,0,1-1.06-3.33c-.1-2.22-.07-6.71-.07-6.71v-4.9c-.08-5.23,1.73-7.6,4.86-10.27,5.29-4.51,11.43-5.65,18-3.1s9.21,8,9.77,14.51C306.88,155.66,305.53,161.05,301.29,165.46Z" transform="translate(-29.82 -104.76)" fill="#ff7a04"/><path d="M479.13,153.36c0-2.12.08-3.93,0-5.74a17.63,17.63,0,0,0-14.31-16.7,27.48,27.48,0,0,0-7.63-.48c-7.64.55-13.56,3.94-17,10.75A24.92,24.92,0,0,0,438,156.42a19.09,19.09,0,0,0,5.47,11.29c6.06,5.93,13.53,7.43,21.74,6a18,18,0,0,0,12.47-8.39L475,163.1c-7,8.64-16.16,8.55-23.34,5.46a16.54,16.54,0,0,1-9.7-15.2Zm-37.22-3.88c.55-5.24,2.58-9.66,7.16-12.55a18.11,18.11,0,0,1,18.19-1c4.92,2.3,7.93,8.05,7.39,13.54Z" transform="translate(-29.82 -104.76)" fill="#ff7a04"/><path d="M335.13,130.43a13.24,13.24,0,0,0-11.5,5.08v-4h-3.89V173.8h4v-2c0-8.84,0-18.18,0-27a10.25,10.25,0,0,1,6-9.55A8.61,8.61,0,0,1,340,136.61l2.86-2.35A10.55,10.55,0,0,0,335.13,130.43Z" transform="translate(-29.82 -104.76)" fill="#ff7a04"/><path d="M349.44,131.39v42.4h3.81v-42.4Z" transform="translate(-29.82 -104.76)" fill="#ff7a04"/><path d="M197.54,173.82h9.37c0-13.08,0-43.39,0-43.39h-9.38Z" transform="translate(-29.82 -104.76)" fill="#ff7a04"/><circle cx="321.61" cy="12.84" r="3.01" fill="#ff7a04"/><circle cx="172.31" cy="13.21" r="5.85" fill="#ff7a04"/><polygon points="33.97 29.53 59.15 47.48 59.15 2.78 37.72 25.54 33.97 29.53" fill="#ff7a04"/><path d="M87.19,195.14l.11.27h0a4.5,4.5,0,0,0,.78,1.45h0a3.49,3.49,0,0,0,.59.56l.29.2V159.33h0v-2.6L65,139.64Z" transform="translate(-29.82 -104.76)" fill="#ff7a04"/><path d="M92.62,159.32h0v38.31l.29-.2a3.49,3.49,0,0,0,.59-.56h0a4.5,4.5,0,0,0,.78-1.45h0l.11-.27,22.17-55.5L92.62,156.72Z" transform="translate(-29.82 -104.76)" fill="#ff7a04"/><path d="M33.32,104.77h0a3.54,3.54,0,0,0-2.47,1,3.5,3.5,0,0,0-1,2.48,3.37,3.37,0,0,0,.29,1.4,3.57,3.57,0,0,0,.83,1.17h0a10,10,0,0,0,1,.75l.48.34L60.8,132.16l25.78-27.39Z" transform="translate(-29.82 -104.76)" fill="#ff7a04"/><polygon points="62.8 2.78 62.8 47.48 87.98 29.53 84.27 25.59 62.8 2.78" fill="#ff7a04"/><path d="M148.28,104.76H95l25.78,27.39,28.35-20.22.49-.34a10.92,10.92,0,0,0,1-.75h0a3.6,3.6,0,0,0,.84-1.17,3.51,3.51,0,0,0-3.21-4.91Z" transform="translate(-29.82 -104.76)" fill="#ff7a04"/></svg>