<svg id="bd1a94c7-65d3-4807-b3ee-752c7c90401e" data-name="Layer 1" xmlns="http://www.w3.org/2000/svg" viewBox="0 0 375.54 65.6"><title>tiomarkets-logo-orange</title><path d="M217.34,22.65q3.25,3.34,3.25,9.61V50.12h-2.93V32.49c0-3.43-.84-6.05-2.52-7.84a9.13,9.13,0,0,0-7-2.7A10.67,10.67,0,0,0,200,25.17a12.19,12.19,0,0,0-3,8.67V50.12H194V32.49c0-3.43-.84-6.05-2.52-7.84a9.12,9.12,0,0,0-7-2.7,10.67,10.67,0,0,0-8.17,3.22,12.19,12.19,0,0,0-3,8.67V50.12h-2.93V19.55h2.81v6.56a11.31,11.31,0,0,1,4.54-5,13.83,13.83,0,0,1,7.18-1.78,12.69,12.69,0,0,1,7,1.87,10.18,10.18,0,0,1,4.13,5.51,11.92,11.92,0,0,1,4.77-5.39,14.23,14.23,0,0,1,7.59-2Q214.08,19.32,217.34,22.65Z" fill="#ff7a04"/><path d="M247,22.22q3,2.89,3,8.52V50.12h-2.81V44.67A10.12,10.12,0,0,1,243,48.86a14.08,14.08,0,0,1-6.73,1.49q-5.1,0-8-2.4a7.74,7.74,0,0,1-3-6.32A7.82,7.82,0,0,1,228,35.45q2.73-2.37,8.7-2.37h10.48V30.62q0-4.28-2.31-6.5c-1.54-1.49-3.8-2.23-6.76-2.23A16.15,16.15,0,0,0,232.25,23a14.58,14.58,0,0,0-4.72,2.81l-1.46-2.11a16.16,16.16,0,0,1,5.51-3.19,20,20,0,0,1,6.73-1.14C242.1,19.32,245,20.28,247,22.22Zm-3.9,24a10.66,10.66,0,0,0,4-5.1V35.36H236.73c-3,0-5.18.55-6.53,1.64a5.5,5.5,0,0,0-2,4.51,5.67,5.67,0,0,0,2.22,4.72A10.05,10.05,0,0,0,236.67,48,11.5,11.5,0,0,0,243.14,46.2Z" fill="#ff7a04"/><path d="M264.52,21.1a13.9,13.9,0,0,1,7.26-1.78v2.87l-.7-.06a10.13,10.13,0,0,0-8,3.19c-1.92,2.13-2.87,5.08-2.87,8.87V50.12h-2.93V19.55h2.81v6.68A10.58,10.58,0,0,1,264.52,21.1Z" fill="#ff7a04"/><path d="M286.4,33.78l-8,7.26v9.08h-2.93V6.67h2.93V37.41L298,19.55h3.74L288.57,31.91,303,50.12H299.4Z" fill="#ff7a04"/><path d="M330.55,35.54H304.26a12.69,12.69,0,0,0,1.81,6.35,11.64,11.64,0,0,0,4.6,4.31,13.88,13.88,0,0,0,6.53,1.52,14,14,0,0,0,5.53-1.08,10.81,10.81,0,0,0,4.25-3.2l1.7,1.94a13.1,13.1,0,0,1-5,3.69A17.49,17.49,0,0,1,309,48.36a14.35,14.35,0,0,1-5.59-5.5,15.77,15.77,0,0,1-2-8,16.62,16.62,0,0,1,1.9-8,14,14,0,0,1,5.24-5.53,15.15,15.15,0,0,1,15,0,14,14,0,0,1,5.22,5.47,16.58,16.58,0,0,1,1.9,8ZM310.23,23.33a11,11,0,0,0-4.13,4,13.15,13.15,0,0,0-1.78,5.88h23.42A12.24,12.24,0,0,0,326,27.4a11.34,11.34,0,0,0-4.16-4A11.46,11.46,0,0,0,316,21.89,11.69,11.69,0,0,0,310.23,23.33Z" fill="#ff7a04"/><path d="M349.87,48.19a7.38,7.38,0,0,1-2.78,1.61,11,11,0,0,1-3.49.55,8.28,8.28,0,0,1-6.15-2.19A8.37,8.37,0,0,1,335.29,42V12.87h2.93v6.68h9.72v2.52h-9.72V41.75a6.41,6.41,0,0,0,1.43,4.53,5.49,5.49,0,0,0,4.25,1.56,6.8,6.8,0,0,0,4.74-1.7Z" fill="#ff7a04"/><path d="M356.44,49.24a14.58,14.58,0,0,1-5.21-2.81l1.35-2.34a15.53,15.53,0,0,0,4.83,2.63,18.08,18.08,0,0,0,6.18,1.06c3.08,0,5.36-.51,6.82-1.52a4.85,4.85,0,0,0,2.2-4.22,4,4,0,0,0-1.2-3,7.55,7.55,0,0,0-3-1.64q-1.76-.52-4.86-1.11a42.11,42.11,0,0,1-5.86-1.4,9.2,9.2,0,0,1-3.8-2.46,6.61,6.61,0,0,1-1.58-4.69,7.32,7.32,0,0,1,3-6q3-2.37,8.58-2.37a20.89,20.89,0,0,1,5.8.82,14.53,14.53,0,0,1,4.68,2.16l-1.34,2.35a13.8,13.8,0,0,0-4.28-2,17.37,17.37,0,0,0-4.92-.71q-4.28,0-6.44,1.58a5,5,0,0,0-2.17,4.16,4.13,4.13,0,0,0,1.23,3.19,7.65,7.65,0,0,0,3,1.7q1.78.55,5,1.2a43,43,0,0,1,5.77,1.38A8.78,8.78,0,0,1,374,37.47,6.35,6.35,0,0,1,375.54,42a7.15,7.15,0,0,1-3.17,6.09q-3.15,2.28-8.9,2.28A22.16,22.16,0,0,1,356.44,49.24Z" fill="#ff7a04"/><path d="M146.66,24.47a9.54,9.54,0,0,1,4.94,1.28,8.94,8.94,0,0,1,3.34,3.53,11.19,11.19,0,0,1,1.23,5.29,11.29,11.29,0,0,1-1.23,5.32,8.9,8.9,0,0,1-3.34,3.54,10.2,10.2,0,0,1-9.93,0,8.8,8.8,0,0,1-3.35-3.54,11.17,11.17,0,0,1-1.23-5.32,11.08,11.08,0,0,1,1.23-5.29,8.9,8.9,0,0,1,3.35-3.53,9.7,9.7,0,0,1,5-1.28m0-5.81A18.73,18.73,0,0,0,140,19.8,15.09,15.09,0,0,0,134.87,23a14.25,14.25,0,0,0-3.35,5,17.21,17.21,0,0,0-1.18,6.47,17,17,0,0,0,1.18,6.43,14.29,14.29,0,0,0,3.35,5A15,15,0,0,0,140,49.2a19.47,19.47,0,0,0,13.24,0A15,15,0,0,0,158.4,46a14.42,14.42,0,0,0,3.33-5,17,17,0,0,0,1.19-6.43A17.21,17.21,0,0,0,161.73,28a14.47,14.47,0,0,0-3.33-5,14.9,14.9,0,0,0-5.14-3.24A18.54,18.54,0,0,0,146.66,18.66Z" fill="#ff7a04"/><rect x="117.9" y="18.89" width="6.69" height="31.23" fill="#ff7a04"/><path d="M121.25,5.86a3.93,3.93,0,0,0-2,.53,3.8,3.8,0,0,0-1.39,1.45,4.33,4.33,0,0,0-.52,2.13,4.25,4.25,0,0,0,.52,2.1,3.87,3.87,0,0,0,1.39,1.42,3.93,3.93,0,0,0,2,.53,3.87,3.87,0,0,0,2-.53,3.72,3.72,0,0,0,1.39-1.42,4.25,4.25,0,0,0,.53-2.1,4.31,4.31,0,0,0-.53-2.13,3.73,3.73,0,0,0-1.39-1.45A3.87,3.87,0,0,0,121.25,5.86Z" fill="#ff7a04"/><path d="M110.59,43a18.27,18.27,0,0,1-2.51,1,8,8,0,0,1-2.19.34,3.78,3.78,0,0,1-1.81-.38,2.56,2.56,0,0,1-1.14-1.31,6.75,6.75,0,0,1-.4-2.54v-15h9.22V20.07h-9.22V11.5H95.85V41.32a11.3,11.3,0,0,0,.71,4.12,7.43,7.43,0,0,0,1.9,2.82,8,8,0,0,0,2.79,1.64,10.78,10.78,0,0,0,3.35.51,13.43,13.43,0,0,0,3.91-.59,17.12,17.12,0,0,0,3.78-1.7Z" fill="#ff7a04"/><path d="M40.94,33.33V4.19L27,19l-2.45,2.6ZM59.73,21.62l-2.42-2.57-14-14.86V33.33ZM40.94,61.5V37.94h0v-1.7L25.32,25.11,39.78,61.28l.07.18h0a3.22,3.22,0,0,0,.51,1h0a1.67,1.67,0,0,0,.39.36l.19.13Zm18-36.39L43.32,36.24v1.7h0v25l.19-.13a1.85,1.85,0,0,0,.38-.36h0a3,3,0,0,0,.51-1h0l.08-.18ZM63.32,22h0l-.82.58L46.68,62.16l-.07.17h0a4.84,4.84,0,0,1-.9,1.61h0a4.2,4.2,0,0,1-.78.74,4.8,4.8,0,0,1-.93.54h0a4.76,4.76,0,0,1-3.74,0h0a4.59,4.59,0,0,1-.94-.54,4.54,4.54,0,0,1-.78-.74h0a5,5,0,0,1-.9-1.61h0l-.06-.17L21.76,22.56,20.93,22h0L2.72,9l-.28-.2a7.36,7.36,0,0,1-.94-.72h0A4.76,4.76,0,0,1,.39,6.52a4.65,4.65,0,0,1,1-5.15A4.71,4.71,0,0,1,4.66,0H79.6a4.7,4.7,0,0,1,3.29,1.37,4.66,4.66,0,0,1-.13,6.7h0a8.21,8.21,0,0,1-1,.72l-.28.2ZM44.88,2.38l16.8,17.85L80.16,7.05l.32-.22a7.9,7.9,0,0,0,.67-.49h0a2.32,2.32,0,0,0,.55-.77,2.24,2.24,0,0,0,.18-.91A2.27,2.27,0,0,0,79.6,2.37H44.88Zm-5.5,0H4.66A2.32,2.32,0,0,0,3.05,3a2.27,2.27,0,0,0-.67,1.62,2.24,2.24,0,0,0,.19.91,2.29,2.29,0,0,0,.54.77h0a5.6,5.6,0,0,0,.67.49l.31.22L22.57,20.23Z" fill="#ff7a04"/></svg>